<svg width="48" height="43" viewBox="0 0 48 43" fill="none" xmlns="http://www.w3.org/2000/svg">
<path d="M0 4.3125C0 2.41113 1.53214 0.875 3.42857 0.875H44.5714C46.4679 0.875 48 2.41113 48 4.3125C48 6.21387 46.4679 7.75 44.5714 7.75H3.42857C1.53214 7.75 0 6.21387 0 4.3125ZM0 21.5C0 19.5986 1.53214 18.0625 3.42857 18.0625H44.5714C46.4679 18.0625 48 19.5986 48 21.5C48 23.4014 46.4679 24.9375 44.5714 24.9375H3.42857C1.53214 24.9375 0 23.4014 0 21.5ZM48 38.6875C48 40.5889 46.4679 42.125 44.5714 42.125H3.42857C1.53214 42.125 0 40.5889 0 38.6875C0 36.7861 1.53214 35.25 3.42857 35.25H44.5714C46.4679 35.25 48 36.7861 48 38.6875Z" fill="white"/>
</svg>
