<svg version="1.1" id="Layer_1" xmlns="http://www.w3.org/2000/svg" xmlns:xlink="http://www.w3.org/1999/xlink" x="0px" y="0px"
	 width="100%" viewBox="0 0 512 512" enable-background="new 0 0 512 512" xml:space="preserve">
<path fill="#45B39C" opacity="1.000000" stroke="none" 
	d="
M279.000000,513.000000 
	C264.645782,513.000000 250.291550,513.000000 235.253998,512.632690 
	C226.613190,511.195496 218.640289,510.228333 210.701187,509.036102 
	C187.385254,505.534729 165.356216,497.868195 144.266342,487.582184 
	C124.446785,477.915710 106.165192,465.863464 89.571541,451.197784 
	C73.790611,437.250336 59.517136,422.048798 47.291920,404.874573 
	C34.488674,386.888275 24.209366,367.554199 16.556992,346.916412 
	C9.901271,328.966522 5.027876,310.484467 2.959016,291.354706 
	C2.511235,287.214264 1.663509,283.117096 1.000000,279.000000 
	C1.000000,264.645782 1.000000,250.291550 1.367288,235.253967 
	C2.804557,226.613159 3.771694,218.640228 4.963902,210.701111 
	C8.465221,187.385178 16.131784,165.356186 26.417837,144.266327 
	C36.084328,124.446785 48.136574,106.165192 62.802288,89.571548 
	C76.749702,73.790619 91.951225,59.517117 109.125443,47.291908 
	C127.111725,34.488647 146.445816,24.209360 167.083603,16.556976 
	C185.033493,9.901247 203.515564,5.027860 222.645325,2.959013 
	C226.785751,2.511234 230.882904,1.663509 235.000000,1.000001 
	C249.354233,1.000000 263.708466,1.000000 278.746033,1.367291 
	C287.386932,2.804566 295.359924,3.771693 303.299133,4.963919 
	C326.615021,8.465260 348.644012,16.131828 369.733856,26.417917 
	C389.553345,36.084450 407.834900,48.136673 424.428558,62.802364 
	C440.209473,76.749763 454.482910,91.951294 466.708130,109.125481 
	C479.511414,127.111725 489.790588,146.445847 497.443054,167.083588 
	C504.098846,185.033493 508.972107,203.515579 511.041016,222.645340 
	C511.488800,226.785751 512.336487,230.882919 513.000000,235.000000 
	C513.000000,249.354233 513.000000,263.708466 512.632690,278.746033 
	C511.195496,287.386841 510.228271,295.359772 509.036072,303.298889 
	C505.534760,326.614838 497.868195,348.643829 487.582153,369.733673 
	C477.915680,389.553223 465.863373,407.834747 451.197723,424.428436 
	C437.250305,440.209412 422.048737,454.482880 404.874542,466.708130 
	C386.888306,479.511444 367.554199,489.790649 346.916443,497.443024 
	C328.966492,504.098694 310.484467,508.972168 291.354706,511.041046 
	C287.214264,511.488831 283.117096,512.336548 279.000000,513.000000 
M408.200867,235.355240 
	C407.829102,234.864746 407.457336,234.374252 407.059418,233.973999 
	C407.059418,233.973999 407.149841,233.999451 407.354431,233.312164 
	C406.917969,232.516296 406.481537,231.720428 406.054871,230.988403 
	C406.054871,230.988403 406.111816,230.957886 405.999725,230.280426 
	C404.367584,228.176086 402.735443,226.071732 401.175781,223.037552 
	C401.181885,213.087799 401.166687,203.137985 401.200928,193.188339 
	C401.227905,185.355240 398.704590,178.577499 393.280853,172.390045 
	C396.893219,166.736343 399.855377,160.949280 396.980560,153.265915 
	C394.185760,149.885773 392.004547,145.572510 388.501678,143.269165 
	C351.662720,119.045204 314.635223,95.107353 277.606171,71.173470 
	C267.302490,64.513641 257.256104,66.710571 250.448608,76.965416 
	C244.651733,85.697868 239.042389,94.554565 233.313995,103.332733 
	C219.860535,123.948776 206.385483,144.550720 191.990387,165.101273 
	C172.361130,165.092148 152.731796,165.053253 133.102737,165.109177 
	C130.458893,165.116714 127.766914,165.365189 125.181717,165.905991 
	C112.754440,168.505692 103.867577,179.643890 104.022621,192.895096 
	C104.125549,194.954010 104.228485,197.012909 104.086990,199.972397 
	C104.022667,200.968689 103.902267,201.964951 103.902046,202.961258 
	C103.889771,258.269257 103.881683,313.577271 103.908585,368.885284 
	C103.909531,370.830658 104.579346,372.802979 104.412155,374.716888 
	C102.776451,393.441406 113.736412,406.189117 132.350235,406.217255 
	C215.480225,406.342896 298.610596,406.332764 381.740601,406.225128 
	C399.158264,406.202576 409.971222,395.117462 410.219879,377.695068 
	C410.336334,369.533569 410.320984,361.368256 410.213135,353.206665 
	C410.177216,350.487091 410.785278,349.069061 413.868774,348.565002 
	C419.154297,347.700928 423.243256,344.625092 424.601959,339.306885 
	C425.778168,334.702881 426.546448,329.884583 426.661652,325.140747 
	C426.977112,312.153625 427.150177,299.146851 426.756195,286.166748 
	C426.600067,281.024139 424.798004,275.931427 423.546173,270.226044 
	C420.536072,265.191437 415.458405,263.932617 410.248871,262.008514 
	C409.848419,254.041580 409.447937,246.074631 409.052246,237.448471 
	C408.726257,236.920105 408.400269,236.391754 408.034058,235.978622 
	C408.034058,235.978622 408.149445,236.018448 408.200867,235.355240 
z"/>
<path fill="#FFFFFF" opacity="1.000000" stroke="none" 
	d="
M234.531342,1.000001 
	C230.882904,1.663509 226.785751,2.511234 222.645325,2.959013 
	C203.515564,5.027860 185.033493,9.901247 167.083603,16.556976 
	C146.445816,24.209360 127.111725,34.488647 109.125443,47.291908 
	C91.951225,59.517117 76.749702,73.790619 62.802288,89.571548 
	C48.136574,106.165192 36.084328,124.446785 26.417837,144.266327 
	C16.131784,165.356186 8.465221,187.385178 4.963902,210.701111 
	C3.771694,218.640228 2.804557,226.613159 1.367288,234.785309 
	C1.000000,157.072952 1.000000,79.145912 1.000000,1.000000 
	C78.687424,1.000000 156.375061,1.000000 234.531342,1.000001 
z"/>
<path fill="#FFFFFF" opacity="1.000000" stroke="none" 
	d="
M513.000000,234.531342 
	C512.336487,230.882919 511.488800,226.785751 511.041016,222.645340 
	C508.972107,203.515579 504.098846,185.033493 497.443054,167.083588 
	C489.790588,146.445847 479.511414,127.111725 466.708130,109.125481 
	C454.482910,91.951294 440.209473,76.749763 424.428558,62.802364 
	C407.834900,48.136673 389.553345,36.084450 369.733856,26.417917 
	C348.644012,16.131828 326.615021,8.465260 303.299133,4.963919 
	C295.359924,3.771693 287.386932,2.804566 279.214691,1.367291 
	C356.927032,1.000000 434.854095,1.000000 513.000000,1.000000 
	C513.000000,78.687424 513.000000,156.375061 513.000000,234.531342 
z"/>
<path fill="#FFFFFF" opacity="1.000000" stroke="none" 
	d="
M279.468658,513.000000 
	C283.117096,512.336548 287.214264,511.488831 291.354706,511.041046 
	C310.484467,508.972168 328.966492,504.098694 346.916443,497.443024 
	C367.554199,489.790649 386.888306,479.511444 404.874542,466.708130 
	C422.048737,454.482880 437.250305,440.209412 451.197723,424.428436 
	C465.863373,407.834747 477.915680,389.553223 487.582153,369.733673 
	C497.868195,348.643829 505.534760,326.614838 509.036072,303.298889 
	C510.228271,295.359772 511.195496,287.386841 512.632690,279.214661 
	C513.000000,356.927032 513.000000,434.854095 513.000000,513.000000 
	C435.312561,513.000000 357.624939,513.000000 279.468658,513.000000 
z"/>
<path fill="#FFFFFF" opacity="1.000000" stroke="none" 
	d="
M1.000000,279.468658 
	C1.663509,283.117096 2.511235,287.214264 2.959016,291.354706 
	C5.027876,310.484467 9.901271,328.966522 16.556992,346.916412 
	C24.209366,367.554199 34.488674,386.888275 47.291920,404.874573 
	C59.517136,422.048798 73.790611,437.250336 89.571541,451.197784 
	C106.165192,465.863464 124.446785,477.915710 144.266342,487.582184 
	C165.356216,497.868195 187.385254,505.534729 210.701187,509.036102 
	C218.640289,510.228333 226.613190,511.195496 234.785339,512.632690 
	C157.072968,513.000000 79.145927,513.000000 1.000000,513.000000 
	C1.000000,435.312561 1.000000,357.624939 1.000000,279.468658 
z"/>
<path fill="#9E572B" opacity="1.000000" stroke="none" 
	d="
M409.047455,238.107697 
	C409.447937,246.074631 409.848419,254.041580 410.198029,262.916962 
	C410.203796,265.942719 410.260437,268.059998 410.268219,270.565735 
	C410.219391,272.555939 410.219391,274.157684 410.219391,276.656342 
	C413.271545,275.950806 415.590363,275.414825 418.201782,274.737946 
	C420.244751,273.336731 421.995056,272.076355 423.745361,270.816010 
	C424.798004,275.931427 426.600067,281.024139 426.756195,286.166748 
	C427.150177,299.146851 426.977112,312.153625 426.661652,325.140747 
	C426.546448,329.884583 425.778168,334.702881 424.601959,339.306885 
	C423.243256,344.625092 419.154297,347.700928 413.868774,348.565002 
	C410.785278,349.069061 410.177216,350.487091 410.213135,353.206665 
	C410.320984,361.368256 410.336334,369.533569 410.219879,377.695068 
	C409.971222,395.117462 399.158264,406.202576 381.740601,406.225128 
	C298.610596,406.332764 215.480225,406.342896 132.350235,406.217255 
	C113.736412,406.189117 102.776451,393.441406 104.412155,374.716888 
	C104.579346,372.802979 103.909531,370.830658 103.908585,368.885284 
	C103.881683,313.577271 103.889771,258.269257 103.902046,202.961258 
	C103.902267,201.964951 104.022667,200.968689 104.361656,199.823151 
	C107.076439,207.234634 110.993828,214.018112 118.568123,216.989456 
	C123.661232,218.987427 129.492340,219.919571 134.996429,219.931961 
	C215.040466,220.112350 295.085022,220.044296 375.129456,220.072449 
	C385.631012,220.076141 395.805878,221.193085 403.453247,229.737106 
	C404.049652,230.403427 405.212341,230.562866 406.111816,230.957886 
	C406.111816,230.957886 406.054871,230.988403 406.059814,231.293610 
	C406.426453,232.399017 406.788147,233.199234 407.149841,233.999451 
	C407.149841,233.999451 407.059418,233.973999 407.146973,234.220840 
	C407.539490,234.984604 407.844482,235.501526 408.149445,236.018448 
	C408.149445,236.018448 408.034058,235.978622 408.120361,236.221985 
	C408.486908,237.012802 408.767181,237.560242 409.047455,238.107697 
M347.543823,334.296082 
	C348.200134,334.522064 348.856445,334.748047 350.290222,334.949280 
	C350.939819,335.082916 351.591522,335.206940 352.238678,335.351593 
	C365.089569,338.224396 377.556305,330.086456 379.826935,317.340576 
	C382.155182,304.271515 373.210999,292.085754 359.966278,290.619812 
	C356.885529,290.278870 353.702332,290.863922 349.883759,291.203308 
	C349.249084,291.490570 348.614410,291.777832 348.008484,291.993774 
	C348.008484,291.993774 348.079803,292.022369 347.413635,292.102692 
	C346.609528,292.433777 345.805420,292.764893 345.009644,293.016327 
	C345.009644,293.016327 345.089325,293.024841 344.684875,293.329803 
	C344.455475,293.576996 344.226044,293.824188 344.076843,294.007812 
	C344.076843,294.007812 344.140533,294.087891 343.400116,294.085205 
	C333.082520,297.868256 328.196259,313.405640 334.222748,323.709961 
	C336.729309,327.995789 339.263977,332.474152 345.032013,332.996460 
	C345.032013,332.996460 344.979218,332.930542 345.444489,333.303162 
	C345.992737,333.529358 346.541016,333.755554 346.999634,334.021881 
	C346.999634,334.021881 346.959259,333.932343 347.543823,334.296082 
M336.674225,277.551575 
	C341.954834,277.034790 347.228119,276.188232 352.517609,276.070557 
	C363.174805,275.833527 373.840820,275.976746 384.503143,275.999969 
	C387.477600,276.006439 389.926056,275.399017 389.924683,271.747772 
	C389.921539,263.420288 390.347290,255.054733 389.699951,246.774902 
	C388.870239,236.162552 386.027710,234.001938 375.408386,234.001556 
	C296.606567,233.998718 217.804764,234.009125 139.002960,233.983276 
	C132.462906,233.981125 125.435539,235.507294 120.488091,228.318695 
	C119.566612,230.782730 119.040146,232.760635 119.038109,234.739105 
	C118.991570,279.887695 118.986938,325.036285 119.014114,370.184906 
	C119.020218,380.320923 122.743355,383.985748 133.008072,383.987976 
	C213.642487,384.005280 294.276917,384.003632 374.911316,383.967041 
	C377.221008,383.966003 379.564453,383.683777 381.832733,383.233276 
	C386.013458,382.402954 388.759857,379.986542 389.036194,375.508209 
	C389.425018,369.207886 389.829071,362.901886 389.945282,356.593170 
	C390.055634,350.602905 389.379578,350.123627 383.347626,349.992920 
	C368.211792,349.664856 353.076691,349.300964 337.671509,348.348450 
	C336.141205,347.411530 334.546173,346.564728 333.093231,345.520203 
	C329.345215,342.825653 324.973297,340.626740 322.063721,337.199860 
	C305.839264,318.090759 311.049011,292.283813 333.175110,280.367523 
	C334.240021,279.794006 335.050110,278.747314 336.674225,277.551575 
z"/>
<path fill="#344E5D" opacity="1.000000" stroke="none" 
	d="
M192.919174,165.158371 
	C206.385483,144.550720 219.860535,123.948776 233.313995,103.332733 
	C239.042389,94.554565 244.651733,85.697868 250.448608,76.965416 
	C257.256104,66.710571 267.302490,64.513641 277.606171,71.173470 
	C314.635223,95.107353 351.662720,119.045204 388.501678,143.269165 
	C392.004547,145.572510 394.185760,149.885773 396.679565,153.770294 
	C391.619965,155.847519 386.861328,157.420349 381.927246,158.691055 
	C377.763000,149.835785 371.359650,146.065765 363.698425,147.759964 
	C355.431061,149.588211 350.953125,155.714050 350.853638,165.178558 
	C340.234833,170.491943 337.526031,177.892365 341.554840,188.790802 
	C286.778961,188.858505 232.472778,188.908035 178.265396,188.660919 
	C178.974792,187.262100 179.585403,186.159897 180.429810,184.840912 
	C181.483612,183.113495 182.303635,181.602890 183.373077,179.894928 
	C184.439346,178.459503 185.256180,177.221466 186.305939,175.765656 
	C187.669113,173.721252 188.799332,171.894608 190.132233,169.816010 
	C191.196335,168.095490 192.057755,166.626938 192.919174,165.158371 
M245.033524,140.237900 
	C245.033524,140.237900 244.981583,140.104080 245.585510,139.551437 
	C247.700760,135.344101 245.756409,132.894562 241.469559,131.131958 
	C241.295395,131.416229 241.121231,131.700500 240.310303,131.747208 
	C236.796967,125.970108 235.334869,131.370483 232.951996,133.375443 
	C232.484177,133.924545 232.016373,134.473648 231.132065,135.701401 
	C231.387817,140.125931 233.837769,142.262726 239.789734,142.419113 
	C240.035583,142.535706 240.281433,142.652313 240.036118,143.402985 
	C240.831573,143.724045 242.167221,144.493530 242.333939,144.292679 
	C243.338287,143.082764 244.074707,141.650436 245.033524,140.237900 
M247.279495,119.859154 
	C245.291916,119.996796 243.304352,120.134430 241.316772,120.272072 
	C242.212906,122.509369 243.109024,124.746674 244.187408,127.638268 
	C244.859375,128.736572 245.531326,129.834885 246.229324,130.975723 
	C247.275787,130.268005 248.161316,129.829590 248.835785,129.174026 
	C249.764618,128.271240 250.770264,127.317314 251.313843,126.180145 
	C252.049149,124.641853 252.377289,122.908913 252.880112,121.259476 
	C251.246841,120.894554 249.613571,120.529633 247.279495,119.859154 
M257.865814,104.218658 
	C252.871780,100.210304 251.947372,100.223190 250.490753,103.952637 
	C251.724045,105.386520 252.834457,106.677528 253.173340,107.899681 
	C251.417114,108.586922 249.660873,109.274170 247.572891,110.007103 
	C247.426346,110.672142 247.279800,111.337181 247.008194,112.722107 
	C248.682602,113.176224 250.356995,113.630348 252.603088,113.898338 
	C253.067093,113.594933 253.531082,113.291519 254.792648,113.050819 
	C256.047241,112.797523 257.578247,112.905724 258.492218,112.206932 
	C259.892639,111.136253 260.868073,109.509689 262.023865,108.119072 
	C260.696075,107.032799 259.368256,105.946526 257.865814,104.218658 
M268.119476,95.236198 
	C266.862183,95.354820 265.604889,95.473442 264.341370,95.592651 
	C263.840454,94.419762 263.329803,93.224022 262.722168,91.466873 
	C261.939667,90.790871 261.157166,90.114868 259.970123,89.089394 
	C260.088074,90.568474 260.182007,91.746674 259.880585,93.571259 
	C259.205017,94.561920 258.495941,95.531761 257.863586,96.549286 
	C257.269623,97.505058 256.756714,98.511208 256.208160,99.495201 
	C257.487152,99.948906 258.766113,100.402611 260.895264,100.783028 
	C261.178589,100.807899 261.461914,100.832779 261.195801,101.326759 
	C262.095551,102.280701 262.995300,103.234642 263.895050,104.188576 
	C264.315796,103.272087 264.664856,102.313004 265.177155,101.450935 
	C265.704285,100.563919 266.390594,99.771523 267.668579,99.230667 
	C271.748779,101.533600 272.461700,98.434807 273.907928,95.393944 
	C271.874542,95.393944 270.356995,95.393944 268.119476,95.236198 
M254.523239,96.505508 
	C254.523239,96.505508 254.538376,96.483353 254.523239,96.505508 
z"/>
<path fill="#C16B36" opacity="1.000000" stroke="none" 
	d="
M406.055786,230.619156 
	C405.212341,230.562866 404.049652,230.403427 403.453247,229.737106 
	C395.805878,221.193085 385.631012,220.076141 375.129456,220.072449 
	C295.085022,220.044296 215.040466,220.112350 134.996429,219.931961 
	C129.492340,219.919571 123.661232,218.987427 118.568123,216.989456 
	C110.993828,214.018112 107.076439,207.234634 104.483871,199.372864 
	C104.228485,197.012909 104.125549,194.954010 104.523010,192.451874 
	C107.260384,192.008713 109.497368,192.008759 111.818611,192.288391 
	C111.972038,192.750183 112.041206,192.932404 112.090317,193.478851 
	C112.325615,195.256821 112.580986,196.670578 112.881050,198.442368 
	C113.344337,199.916367 113.762924,201.032303 114.269836,202.442154 
	C115.460533,204.236694 116.562904,205.737350 117.809959,207.539612 
	C119.334442,208.956314 120.714241,210.071381 122.337448,211.414383 
	C127.181480,212.763168 131.778748,214.843689 136.383255,214.859848 
	C197.963837,215.075790 259.545563,214.925095 321.126648,215.045532 
	C342.078369,215.086517 363.029053,215.629562 384.333313,216.054962 
	C386.122253,216.537994 387.558136,216.909256 389.251038,217.463867 
	C390.336243,217.846298 391.164429,218.045380 392.122559,218.395370 
	C392.460022,218.712189 392.680634,218.858276 393.229095,219.131042 
	C396.063660,220.840805 398.583496,222.404083 401.103333,223.967377 
	C402.735443,226.071732 404.367584,228.176086 406.055786,230.619156 
z"/>
<path fill="#DE7F41" opacity="1.000000" stroke="none" 
	d="
M111.734344,192.008804 
	C109.497368,192.008759 107.260384,192.008713 104.604752,192.015930 
	C103.867577,179.643890 112.754440,168.505692 125.181717,165.905991 
	C127.766914,165.365189 130.458893,165.116714 133.102737,165.109177 
	C152.731796,165.053253 172.361130,165.092148 192.454773,165.129822 
	C192.057755,166.626938 191.196335,168.095490 189.670959,169.824860 
	C171.796234,170.100830 154.585159,170.063797 137.374847,170.160156 
	C131.548828,170.192764 125.776474,170.742584 120.770882,174.985260 
	C118.986633,176.742645 117.495468,178.339264 115.771881,180.164429 
	C114.988556,181.544998 114.437668,182.697052 113.670090,184.114731 
	C113.032997,185.911667 112.612579,187.442978 112.139809,189.354126 
	C111.969749,190.492233 111.852051,191.250519 111.734344,192.008804 
z"/>
<path fill="#3D515C" opacity="1.000000" stroke="none" 
	d="
M382.102722,158.993179 
	C386.861328,157.420349 391.619965,155.847519 396.717957,154.127625 
	C399.855377,160.949280 396.893219,166.736343 392.916077,172.933441 
	C391.324982,175.578049 390.098663,177.679245 388.645111,179.963837 
	C387.947479,180.751343 387.477081,181.355408 386.719666,182.120590 
	C386.021088,183.509537 385.609558,184.737381 384.950562,186.096497 
	C384.431458,186.704849 384.159760,187.181900 383.621399,187.813385 
	C382.860382,188.619705 382.366058,189.271591 381.453735,189.993073 
	C376.984436,189.636444 372.933197,189.210220 368.985718,188.432297 
	C369.775055,184.711227 370.460602,181.341843 371.482147,177.913086 
	C380.343018,174.346054 382.936249,167.603912 382.102722,158.993179 
z"/>
<path fill="#E07E40" opacity="1.000000" stroke="none" 
	d="
M388.872375,179.780426 
	C390.098663,177.679245 391.324982,175.578049 392.804230,173.263977 
	C398.704590,178.577499 401.227905,185.355240 401.200928,193.188339 
	C401.166687,203.137985 401.181885,213.087799 401.139557,223.502457 
	C398.583496,222.404083 396.063660,220.840805 393.274078,218.731445 
	C392.993896,216.846771 392.983459,215.508194 393.016296,213.747375 
	C393.032959,212.203873 393.006348,211.082581 393.013031,209.569733 
	C393.024261,208.131439 393.002258,207.084717 393.022339,205.611374 
	C393.034363,203.761795 393.004211,202.338837 393.010315,200.521881 
	C393.020844,198.802948 392.995148,197.478012 393.013336,195.727631 
	C393.011719,194.174194 392.966248,193.046188 392.943024,191.511719 
	C391.600952,187.330307 390.236664,183.555374 388.872375,179.780426 
z"/>
<path fill="#734121" opacity="1.000000" stroke="none" 
	d="
M423.645752,270.521027 
	C421.995056,272.076355 420.244751,273.336731 418.128296,274.413452 
	C415.280426,272.878998 412.798737,271.528168 410.317047,270.177307 
	C410.260437,268.059998 410.203796,265.942719 410.191711,263.381531 
	C415.458405,263.932617 420.536072,265.191437 423.645752,270.521027 
z"/>
<path fill="#C16B36" opacity="1.000000" stroke="none" 
	d="
M407.252136,233.655807 
	C406.788147,233.199234 406.426453,232.399017 406.054932,231.261688 
	C406.481537,231.720428 406.917969,232.516296 407.252136,233.655807 
z"/>
<path fill="#C16B36" opacity="1.000000" stroke="none" 
	d="
M409.049866,237.778076 
	C408.767181,237.560242 408.486908,237.012802 408.140472,236.164383 
	C408.400269,236.391754 408.726257,236.920105 409.049866,237.778076 
z"/>
<path fill="#C16B36" opacity="1.000000" stroke="none" 
	d="
M408.175171,235.686844 
	C407.844482,235.501526 407.539490,234.984604 407.160034,234.175720 
	C407.457336,234.374252 407.829102,234.864746 408.175171,235.686844 
z"/>
<path fill="#AD5F2F" opacity="1.000000" stroke="none" 
	d="
M337.941315,348.951477 
	C353.076691,349.300964 368.211792,349.664856 383.347626,349.992920 
	C389.379578,350.123627 390.055634,350.602905 389.945282,356.593170 
	C389.829071,362.901886 389.425018,369.207886 389.036194,375.508209 
	C388.759857,379.986542 386.013458,382.402954 381.832733,383.233276 
	C379.564453,383.683777 377.221008,383.966003 374.911316,383.967041 
	C294.276917,384.003632 213.642487,384.005280 133.008072,383.987976 
	C122.743355,383.985748 119.020218,380.320923 119.014114,370.184906 
	C118.986938,325.036285 118.991570,279.887695 119.038109,234.739105 
	C119.040146,232.760635 119.566612,230.782730 120.488091,228.318695 
	C125.435539,235.507294 132.462906,233.981125 139.002960,233.983276 
	C217.804764,234.009125 296.606567,233.998718 375.408386,234.001556 
	C386.027710,234.001938 388.870239,236.162552 389.699951,246.774902 
	C390.347290,255.054733 389.921539,263.420288 389.924683,271.747772 
	C389.926056,275.399017 387.477600,276.006439 384.503143,275.999969 
	C373.840820,275.976746 363.174805,275.833527 352.517609,276.070557 
	C347.228119,276.188232 341.954834,277.034790 335.949158,277.793549 
	C315.467590,283.068787 303.625031,303.418335 309.390839,322.692444 
	C313.683075,337.040710 323.774536,345.253479 337.941315,348.951477 
z"/>
<path fill="#FACF4D" opacity="1.000000" stroke="none" 
	d="
M350.566254,291.022919 
	C353.702332,290.863922 356.885529,290.278870 359.966278,290.619812 
	C373.210999,292.085754 382.155182,304.271515 379.826935,317.340576 
	C377.556305,330.086456 365.089569,338.224396 352.238678,335.351593 
	C351.591522,335.206940 350.939819,335.082916 349.621521,334.741577 
	C348.288300,334.333344 347.623779,334.132843 346.959259,333.932343 
	C346.959259,333.932343 346.999634,334.021881 346.865143,333.744690 
	C346.146851,333.288544 345.563049,333.109528 344.979218,332.930542 
	C344.979218,332.930542 345.032013,332.996460 344.895691,332.677673 
	C337.562531,327.027618 334.032959,320.039520 334.706421,310.947296 
	C335.236450,303.791656 339.272064,298.741211 344.140533,294.087891 
	C344.140533,294.087891 344.076843,294.007812 344.338074,293.998657 
	C344.762634,293.667938 344.925964,293.346375 345.089325,293.024841 
	C345.089325,293.024841 345.009644,293.016327 345.337341,293.165588 
	C346.469971,292.884003 347.274872,292.453186 348.079803,292.022369 
	C348.079803,292.022369 348.008484,291.993774 348.348572,291.982544 
	C349.314514,291.655182 349.940399,291.339050 350.566254,291.022919 
M350.795624,332.071014 
	C353.589935,332.359100 356.408630,333.035919 359.174042,332.862823 
	C367.676331,332.330536 374.693054,325.947540 376.601593,317.417358 
	C378.465851,309.085052 374.697754,300.162140 367.711914,296.366608 
	C359.018036,291.643005 350.198669,292.524261 343.754150,298.760529 
	C333.334167,308.843781 336.401917,324.969910 350.795624,332.071014 
z"/>
<path fill="#894C26" opacity="1.000000" stroke="none" 
	d="
M337.806396,348.649963 
	C323.774536,345.253479 313.683075,337.040710 309.390839,322.692444 
	C303.625031,303.418335 315.467590,283.068787 335.601501,277.978271 
	C335.050110,278.747314 334.240021,279.794006 333.175110,280.367523 
	C311.049011,292.283813 305.839264,318.090759 322.063721,337.199860 
	C324.973297,340.626740 329.345215,342.825653 333.093231,345.520203 
	C334.546173,346.564728 336.141205,347.411530 337.806396,348.649963 
z"/>
<path fill="#7E4923" opacity="1.000000" stroke="none" 
	d="
M343.770325,294.086548 
	C339.272064,298.741211 335.236450,303.791656 334.706421,310.947296 
	C334.032959,320.039520 337.562531,327.027618 344.928589,332.651184 
	C339.263977,332.474152 336.729309,327.995789 334.222748,323.709961 
	C328.196259,313.405640 333.082520,297.868256 343.770325,294.086548 
z"/>
<path fill="#552F17" opacity="1.000000" stroke="none" 
	d="
M410.268219,270.565735 
	C412.798737,271.528168 415.280426,272.878998 417.835632,274.554321 
	C415.590363,275.414825 413.271545,275.950806 410.219391,276.656342 
	C410.219391,274.157684 410.219391,272.555939 410.268219,270.565735 
z"/>
<path fill="#7E4923" opacity="1.000000" stroke="none" 
	d="
M347.746704,292.062531 
	C347.274872,292.453186 346.469971,292.884003 345.333191,293.205414 
	C345.805420,292.764893 346.609528,292.433777 347.746704,292.062531 
z"/>
<path fill="#7E4923" opacity="1.000000" stroke="none" 
	d="
M345.211853,333.116821 
	C345.563049,333.109528 346.146851,333.288544 346.909973,333.724640 
	C346.541016,333.755554 345.992737,333.529358 345.211853,333.116821 
z"/>
<path fill="#7E4923" opacity="1.000000" stroke="none" 
	d="
M347.251526,334.114197 
	C347.623779,334.132843 348.288300,334.333344 349.232788,334.753906 
	C348.856445,334.748047 348.200134,334.522064 347.251526,334.114197 
z"/>
<path fill="#7E4923" opacity="1.000000" stroke="none" 
	d="
M350.225006,291.113098 
	C349.940399,291.339050 349.314514,291.655182 348.334167,292.018188 
	C348.614410,291.777832 349.249084,291.490570 350.225006,291.113098 
z"/>
<path fill="#7E4923" opacity="1.000000" stroke="none" 
	d="
M344.887085,293.177307 
	C344.925964,293.346375 344.762634,293.667938 344.297974,294.030426 
	C344.226044,293.824188 344.455475,293.576996 344.887085,293.177307 
z"/>
<path fill="#7C8E61" opacity="1.000000" stroke="none" 
	d="
M392.980225,206.037979 
	C393.002258,207.084717 393.024261,208.131439 392.802612,209.303223 
	C388.400665,198.764725 380.939087,193.344482 369.156586,193.838623 
	C359.884430,194.227478 350.582733,193.953156 341.294464,193.909225 
	C284.211243,193.639221 227.128220,193.323578 170.044861,193.084076 
	C150.733734,193.003052 131.421890,193.099350 112.110374,193.114624 
	C112.041206,192.932404 111.972038,192.750183 111.818619,192.288391 
	C111.852051,191.250519 111.969749,190.492233 112.593307,189.349091 
	C134.788315,188.962006 156.477463,188.959778 178.166611,188.957565 
	C232.472778,188.908035 286.778961,188.858505 342.022156,188.817276 
	C351.600128,188.811722 360.241028,188.797867 368.881927,188.783997 
	C372.933197,189.210220 376.984436,189.636444 381.549805,190.327042 
	C385.702698,195.740280 389.341461,200.889130 392.980225,206.037979 
z"/>
<path fill="#DE5D49" opacity="1.000000" stroke="none" 
	d="
M368.985718,188.432312 
	C360.241028,188.797867 351.600128,188.811722 342.491882,188.799103 
	C337.526031,177.892365 340.234833,170.491943 351.268677,165.188263 
	C362.316040,164.969711 367.099823,168.209656 371.146149,177.972473 
	C370.460602,181.341843 369.775055,184.711227 368.985718,188.432312 
z"/>
<path fill="#EDC64A" opacity="1.000000" stroke="none" 
	d="
M371.482147,177.913086 
	C367.099823,168.209656 362.316040,164.969711 351.542542,164.966782 
	C350.953125,155.714050 355.431061,149.588211 363.698425,147.759964 
	C371.359650,146.065765 377.763000,149.835785 381.927246,158.691055 
	C382.936249,167.603912 380.343018,174.346054 371.482147,177.913086 
z"/>
<path fill="#9FB67A" opacity="1.000000" stroke="none" 
	d="
M116.004303,179.935898 
	C117.495468,178.339264 118.986633,176.742645 121.230042,175.032349 
	C141.081360,174.952194 160.180618,174.954025 179.279266,175.061157 
	C181.545486,175.073883 183.808487,175.662018 186.072998,175.983429 
	C185.256180,177.221466 184.439346,178.459503 182.896027,179.855286 
	C160.114456,179.987320 138.059387,179.961609 116.004303,179.935898 
z"/>
<path fill="#9FB67A" opacity="1.000000" stroke="none" 
	d="
M178.265396,188.660919 
	C156.477463,188.959778 134.788315,188.962006 112.645660,188.969254 
	C112.612579,187.442978 113.032997,185.911667 114.145447,184.162201 
	C134.373169,183.970566 153.909027,183.963928 173.444275,184.068680 
	C175.696564,184.080765 177.945511,184.712997 180.196014,185.057709 
	C179.585403,186.159897 178.974792,187.262100 178.265396,188.660919 
z"/>
<path fill="#828F5F" opacity="1.000000" stroke="none" 
	d="
M186.305939,175.765656 
	C183.808487,175.662018 181.545486,175.073883 179.279266,175.061157 
	C160.180618,174.954025 141.081360,174.952194 121.523132,174.871582 
	C125.776474,170.742584 131.548828,170.192764 137.374847,170.160156 
	C154.585159,170.063797 171.796234,170.100830 189.468277,170.076813 
	C188.799332,171.894608 187.669113,173.721252 186.305939,175.765656 
z"/>
<path fill="#7B8C5E" opacity="1.000000" stroke="none" 
	d="
M180.429810,184.840912 
	C177.945511,184.712997 175.696564,184.080765 173.444275,184.068680 
	C153.909027,183.963928 134.373169,183.970566 114.362137,183.896576 
	C114.437668,182.697052 114.988556,181.544998 115.771881,180.164429 
	C138.059387,179.961609 160.114456,179.987320 182.646576,180.052658 
	C182.303635,181.602890 181.483612,183.113495 180.429810,184.840912 
z"/>
<path fill="#E0E5E6" opacity="1.000000" stroke="none" 
	d="
M238.983948,142.549667 
	C233.837769,142.262726 231.387817,140.125931 231.642487,135.369263 
	C232.757431,135.042725 233.361954,135.048294 234.002441,135.091782 
	C234.038391,135.129684 234.054352,134.965363 233.991058,134.707779 
	C233.682053,133.984711 233.436340,133.519241 233.190628,133.053772 
	C235.334869,131.370483 236.796967,125.970108 240.813049,131.757599 
	C241.552750,131.608154 241.775818,131.430878 241.985016,131.236130 
	C245.756409,132.894562 247.700760,135.344101 245.103058,139.523529 
	C243.201294,138.716599 241.781967,137.937607 240.092514,137.010330 
	C239.611755,139.412613 239.297852,140.981140 238.983948,142.549667 
M236.646149,137.929962 
	C236.388000,138.227982 236.129837,138.526001 235.871674,138.824020 
	C236.137650,138.870422 236.570908,139.035324 236.637878,138.940781 
	C236.829880,138.669754 236.873444,138.293594 236.646149,137.929962 
M237.922714,135.493088 
	C237.922714,135.493088 237.978210,135.430359 237.922714,135.493088 
M236.501999,133.526276 
	C236.501999,133.526276 236.489288,133.488358 236.501999,133.526276 
M243.473816,135.501328 
	C243.473816,135.501328 243.516525,135.486298 243.473816,135.501328 
z"/>
<path fill="#E0E5E6" opacity="1.000000" stroke="none" 
	d="
M262.819122,92.028290 
	C263.329803,93.224022 263.840454,94.419762 264.341370,95.592651 
	C265.604889,95.473442 266.862183,95.354820 268.380920,95.583939 
	C268.097321,96.933693 267.552277,97.935699 267.007233,98.937714 
	C266.390594,99.771523 265.704285,100.563919 265.177155,101.450935 
	C264.664856,102.313004 264.315796,103.272087 263.895050,104.188583 
	C262.995300,103.234642 262.095551,102.280701 261.624390,100.985641 
	C262.392609,100.012779 262.732178,99.381027 263.071777,98.749283 
	C262.763885,98.538521 262.455994,98.327766 262.148132,98.117012 
	C261.447113,99.030113 260.746094,99.943207 260.045105,100.856308 
	C258.766113,100.402611 257.487152,99.948906 256.208160,99.495201 
	C256.756714,98.511208 257.269623,97.505058 257.863586,96.549286 
	C258.495941,95.531761 259.205017,94.561920 260.333740,93.156586 
	C261.464294,92.504044 262.141693,92.266167 262.819122,92.028290 
z"/>
<path fill="#E0E5E6" opacity="1.000000" stroke="none" 
	d="
M247.904648,109.961418 
	C249.660873,109.274170 251.417114,108.586922 253.660400,108.151871 
	C254.363281,109.062126 254.579086,109.720200 255.192627,111.591133 
	C256.465454,108.582771 257.252960,106.721512 258.040466,104.860252 
	C259.368256,105.946526 260.696075,107.032799 262.023865,108.119072 
	C260.868073,109.509689 259.892639,111.136253 258.492218,112.206932 
	C257.578247,112.905724 256.047241,112.797523 254.186218,112.909935 
	C253.063644,113.207520 252.547531,113.645996 252.031403,114.084465 
	C250.356995,113.630348 248.682602,113.176224 247.288757,112.275093 
	C247.681107,111.205856 247.792877,110.583641 247.904648,109.961418 
z"/>
<path fill="#DCE2E3" opacity="1.000000" stroke="none" 
	d="
M247.980301,120.164703 
	C249.613571,120.529633 251.246841,120.894554 252.880127,121.259476 
	C252.377289,122.908913 252.049149,124.641853 251.313843,126.180145 
	C250.770264,127.317314 249.764618,128.271240 248.835785,129.174026 
	C248.161316,129.829590 247.275787,130.268005 246.229324,130.975723 
	C245.531326,129.834885 244.859375,128.736572 244.138504,126.967903 
	C245.386505,124.253258 246.683395,122.208984 247.980301,120.164703 
z"/>
<path fill="#CCD3D6" opacity="1.000000" stroke="none" 
	d="
M257.953125,104.539459 
	C257.252960,106.721512 256.465454,108.582771 255.192627,111.591133 
	C254.579086,109.720200 254.363281,109.062126 254.046173,108.186295 
	C252.834457,106.677528 251.724045,105.386520 250.490753,103.952637 
	C251.947372,100.223190 252.871780,100.210304 257.953125,104.539459 
z"/>
<path fill="#E0E5E6" opacity="1.000000" stroke="none" 
	d="
M247.629898,120.011932 
	C246.683395,122.208984 245.386505,124.253258 244.047379,126.640755 
	C243.109024,124.746674 242.212906,122.509369 241.316772,120.272064 
	C243.304352,120.134430 245.291916,119.996796 247.629898,120.011932 
z"/>
<path fill="#ADB8BD" opacity="1.000000" stroke="none" 
	d="
M267.337891,99.084183 
	C267.552277,97.935699 268.097321,96.933693 268.740906,95.662811 
	C270.356995,95.393944 271.874542,95.393944 273.907928,95.393944 
	C272.461700,98.434807 271.748779,101.533600 267.337891,99.084183 
z"/>
<path fill="#DCE2E3" opacity="1.000000" stroke="none" 
	d="
M239.386841,142.484390 
	C239.297852,140.981140 239.611755,139.412613 240.092514,137.010330 
	C241.781967,137.937607 243.201294,138.716599 244.801086,139.799835 
	C244.981583,140.104080 245.033524,140.237900 244.663544,140.128357 
	C243.038147,140.935501 241.782730,141.852219 240.527313,142.768921 
	C240.281433,142.652313 240.035583,142.535706 239.386841,142.484390 
z"/>
<path fill="#CCD3D6" opacity="1.000000" stroke="none" 
	d="
M262.770630,91.747589 
	C262.141693,92.266167 261.464294,92.504044 260.531403,92.833397 
	C260.182007,91.746674 260.088074,90.568474 259.970123,89.089394 
	C261.157166,90.114868 261.939667,90.790871 262.770630,91.747589 
z"/>
<path fill="#E0E5E6" opacity="1.000000" stroke="none" 
	d="
M240.281708,143.085953 
	C241.782730,141.852219 243.038147,140.935501 244.597198,140.155685 
	C244.074707,141.650436 243.338287,143.082764 242.333939,144.292679 
	C242.167221,144.493530 240.831573,143.724045 240.281708,143.085953 
z"/>
<path fill="#DCE2E3" opacity="1.000000" stroke="none" 
	d="
M233.966476,135.053879 
	C233.361954,135.048294 232.757431,135.042725 231.850739,135.029938 
	C232.016373,134.473648 232.484177,133.924545 233.071320,133.214600 
	C233.436340,133.519241 233.682053,133.984711 233.967926,134.728760 
	C234.008102,135.007324 233.966476,135.053879 233.966476,135.053879 
z"/>
<path fill="#DCE2E3" opacity="1.000000" stroke="none" 
	d="
M247.738770,109.984261 
	C247.792877,110.583641 247.681107,111.205856 247.351288,111.915146 
	C247.279800,111.337181 247.426346,110.672142 247.738770,109.984261 
z"/>
<path fill="#DCE2E3" opacity="1.000000" stroke="none" 
	d="
M252.317245,113.991402 
	C252.547531,113.645996 253.063644,113.207520 253.787415,112.878586 
	C253.531082,113.291519 253.067093,113.594933 252.317245,113.991402 
z"/>
<path fill="#CCD3D6" opacity="1.000000" stroke="none" 
	d="
M254.530807,96.494431 
	C254.538376,96.483353 254.523239,96.505508 254.530807,96.494431 
z"/>
<path fill="#DCE2E3" opacity="1.000000" stroke="none" 
	d="
M241.727295,131.184052 
	C241.775818,131.430878 241.552750,131.608154 241.131424,131.876373 
	C241.121231,131.700500 241.295395,131.416229 241.727295,131.184052 
z"/>
<path fill="#7D8F62" opacity="1.000000" stroke="none" 
	d="
M392.973022,214.169601 
	C392.983459,215.508194 392.993896,216.846771 392.959351,218.584961 
	C392.680634,218.858276 392.460022,218.712189 392.065338,218.021912 
	C388.046875,207.370132 381.805084,203.014908 371.053009,202.968994 
	C301.591461,202.672409 232.129990,202.359222 162.668350,202.092255 
	C146.506378,202.030136 130.343796,202.125412 114.181503,202.148254 
	C113.762924,201.032303 113.344337,199.916367 113.363411,198.403412 
	C135.582901,197.699722 157.364304,197.170273 179.146637,197.128662 
	C241.055420,197.010422 302.964722,197.157715 364.873505,197.040131 
	C377.938629,197.015320 387.912231,201.392319 392.973022,214.169601 
z"/>
<path fill="#7B8C60" opacity="1.000000" stroke="none" 
	d="
M122.094048,211.186447 
	C120.714241,210.071381 119.334442,208.956314 118.307266,207.477173 
	C119.824905,207.074844 120.989929,207.003403 122.154961,207.003036 
	C204.273743,206.976990 286.392517,206.955673 368.511292,206.942459 
	C370.175812,206.942184 371.889679,206.803513 373.496185,207.136398 
	C379.965088,208.476822 386.105927,210.425766 388.993988,217.280502 
	C387.558136,216.909256 386.122253,216.537994 384.096588,215.806976 
	C380.620544,214.253708 377.818390,212.405731 374.828156,212.021469 
	C370.442627,211.457870 365.922485,211.972183 361.459717,211.973969 
	C335.306488,211.984390 309.152924,212.062637 283.000092,211.962051 
	C229.364548,211.755753 175.729370,211.450790 122.094048,211.186447 
z"/>
<path fill="#9FB67B" opacity="1.000000" stroke="none" 
	d="
M389.251038,217.463867 
	C386.105927,210.425766 379.965088,208.476822 373.496185,207.136398 
	C371.889679,206.803513 370.175812,206.942184 368.511292,206.942459 
	C286.392517,206.955673 204.273743,206.976990 122.154961,207.003036 
	C120.989929,207.003403 119.824905,207.074844 118.162582,207.175552 
	C116.562904,205.737350 115.460533,204.236694 114.269836,202.442169 
	C130.343796,202.125412 146.506378,202.030136 162.668350,202.092255 
	C232.129990,202.359222 301.591461,202.672409 371.053009,202.968994 
	C381.805084,203.014908 388.046875,207.370132 391.935364,217.871002 
	C391.164429,218.045380 390.336243,217.846298 389.251038,217.463867 
z"/>
<path fill="#A2B87C" opacity="1.000000" stroke="none" 
	d="
M393.016296,213.747375 
	C387.912231,201.392319 377.938629,197.015320 364.873505,197.040131 
	C302.964722,197.157715 241.055420,197.010422 179.146637,197.128662 
	C157.364304,197.170273 135.582901,197.699722 113.318710,198.045364 
	C112.580986,196.670578 112.325615,195.256821 112.090317,193.478851 
	C131.421890,193.099350 150.733734,193.003052 170.044861,193.084076 
	C227.128220,193.323578 284.211243,193.639221 341.294464,193.909225 
	C350.582733,193.953156 359.884430,194.227478 369.156586,193.838623 
	C380.939087,193.344482 388.400665,198.764725 392.769348,209.694794 
	C393.006348,211.082581 393.032959,212.203873 393.016296,213.747375 
z"/>
<path fill="#A2B97C" opacity="1.000000" stroke="none" 
	d="
M122.337448,211.414383 
	C175.729370,211.450790 229.364548,211.755753 283.000092,211.962051 
	C309.152924,212.062637 335.306488,211.984390 361.459717,211.973969 
	C365.922485,211.972183 370.442627,211.457870 374.828156,212.021469 
	C377.818390,212.405731 380.620544,214.253708 383.743500,215.695206 
	C363.029053,215.629562 342.078369,215.086517 321.126648,215.045532 
	C259.545563,214.925095 197.963837,215.075790 136.383255,214.859848 
	C131.778748,214.843689 127.181480,212.763168 122.337448,211.414383 
z"/>
<path fill="#9FB67A" opacity="1.000000" stroke="none" 
	d="
M393.022339,205.611374 
	C389.341461,200.889130 385.702698,195.740280 381.967834,190.257462 
	C382.366058,189.271591 382.860382,188.619705 383.812378,188.118698 
	C387.171417,192.485001 390.072754,196.700424 392.974091,200.915863 
	C393.004211,202.338837 393.034363,203.761795 393.022339,205.611374 
z"/>
<path fill="#7D8F62" opacity="1.000000" stroke="none" 
	d="
M393.010315,200.521881 
	C390.072754,196.700424 387.171417,192.485001 384.079041,187.964264 
	C384.159760,187.181900 384.431458,186.704849 385.273132,186.168823 
	C388.218597,189.457581 390.594025,192.805313 392.969482,196.153046 
	C392.995148,197.478012 393.020844,198.802948 393.010315,200.521881 
z"/>
<path fill="#9FB67A" opacity="1.000000" stroke="none" 
	d="
M393.013367,195.727615 
	C390.594025,192.805313 388.218597,189.457581 385.520569,186.037537 
	C385.609558,184.737381 386.021088,183.509537 386.916687,182.396729 
	C389.240753,185.647247 391.080750,188.782730 392.920776,191.918198 
	C392.966248,193.046188 393.011719,194.174194 393.013367,195.727615 
z"/>
<path fill="#828F5F" opacity="1.000000" stroke="none" 
	d="
M392.943024,191.511719 
	C391.080750,188.782730 389.240753,185.647247 387.203705,182.235626 
	C387.477081,181.355408 387.947479,180.751343 388.645142,179.963852 
	C390.236664,183.555374 391.600952,187.330307 392.943024,191.511719 
z"/>
<path fill="#EFC84A" opacity="1.000000" stroke="none" 
	d="
M350.418945,331.943024 
	C336.401917,324.969910 333.334167,308.843781 343.754150,298.760529 
	C350.198669,292.524261 359.018036,291.643005 367.711914,296.366608 
	C374.697754,300.162140 378.465851,309.085052 376.601593,317.417358 
	C374.693054,325.947540 367.676331,332.330536 359.174042,332.862823 
	C356.408630,333.035919 353.589935,332.359100 350.418945,331.943024 
M342.746918,305.544220 
	C339.384888,313.297180 340.918427,321.431030 346.595520,325.957367 
	C352.637054,330.774261 360.917816,331.165863 366.489716,326.898132 
	C373.422394,321.588196 375.757111,314.031830 372.652496,306.646301 
	C367.767670,295.025879 350.574310,292.772003 342.746918,305.544220 
z"/>
<path fill="#DCE2E3" opacity="1.000000" stroke="none" 
	d="
M236.810760,137.944366 
	C236.873444,138.293594 236.829880,138.669754 236.637878,138.940781 
	C236.570908,139.035324 236.137650,138.870422 235.871674,138.824020 
	C236.129837,138.526001 236.388000,138.227982 236.810760,137.944366 
z"/>
<path fill="#DCE2E3" opacity="1.000000" stroke="none" 
	d="
M237.950470,135.461731 
	C237.978210,135.430359 237.922714,135.493088 237.950470,135.461731 
z"/>
<path fill="#DCE2E3" opacity="1.000000" stroke="none" 
	d="
M236.495636,133.507324 
	C236.489288,133.488358 236.501999,133.526276 236.495636,133.507324 
z"/>
<path fill="#DCE2E3" opacity="1.000000" stroke="none" 
	d="
M234.031219,134.986343 
	C234.054352,134.965363 234.038391,135.129684 234.002441,135.091782 
	C233.966476,135.053879 234.008102,135.007324 234.031219,134.986343 
z"/>
<path fill="#DCE2E3" opacity="1.000000" stroke="none" 
	d="
M243.495178,135.493805 
	C243.516525,135.486298 243.473816,135.501328 243.495178,135.493805 
z"/>
<path fill="#CCD3D6" opacity="1.000000" stroke="none" 
	d="
M260.470184,100.819664 
	C260.746094,99.943207 261.447113,99.030113 262.148132,98.117012 
	C262.455994,98.327766 262.763885,98.538521 263.071777,98.749283 
	C262.732178,99.381027 262.392609,100.012779 261.899139,100.751099 
	C261.461914,100.832779 261.178589,100.807899 260.470184,100.819664 
z"/>
<path fill="#D7B442" opacity="1.000000" stroke="none" 
	d="
M342.934021,305.211487 
	C350.574310,292.772003 367.767670,295.025879 372.652496,306.646301 
	C375.757111,314.031830 373.422394,321.588196 366.489716,326.898132 
	C360.917816,331.165863 352.637054,330.774261 346.595520,325.957367 
	C340.918427,321.431030 339.384888,313.297180 342.934021,305.211487 
M370.017670,313.435272 
	C369.678375,305.638306 364.473724,300.078979 357.483643,300.047150 
	C350.910156,300.017212 344.425262,306.045593 344.099396,312.489166 
	C343.782043,318.763245 349.157471,325.351379 355.091217,325.960754 
	C363.392487,326.813293 368.863617,322.527893 370.017670,313.435272 
z"/>
<path fill="#EFC84A" opacity="1.000000" stroke="none" 
	d="
M370.011353,313.857178 
	C368.863617,322.527893 363.392487,326.813293 355.091217,325.960754 
	C349.157471,325.351379 343.782043,318.763245 344.099396,312.489166 
	C344.425262,306.045593 350.910156,300.017212 357.483643,300.047150 
	C364.473724,300.078979 369.678375,305.638306 370.011353,313.857178 
z"/>
</svg>